<mxfile host="app.diagrams.net" modified="2024-01-30T19:41:28.378Z" agent="Mozilla/5.0 (Windows NT 10.0; Win64; x64; rv:122.0) Gecko/20100101 Firefox/122.0" etag="50RH8e1fLGl-XoBnzrVV" version="22.1.21" type="github" pages="2">
  <diagram id="kgpKYQtTHZ0yAKxKKP6v" name="System Berjalan">
    <mxGraphModel dx="3000" dy="1617" grid="1" gridSize="5" guides="1" tooltips="1" connect="1" arrows="1" fold="1" page="1" pageScale="1" pageWidth="1100" pageHeight="850" math="0" shadow="0">
      <root>
        <mxCell id="0" />
        <mxCell id="1" parent="0" />
        <mxCell id="1LS12-EilgBURgq3hOVw-159" value="" style="group" vertex="1" connectable="0" parent="1">
          <mxGeometry x="25" y="20" width="1057.5026829268293" height="820" as="geometry" />
        </mxCell>
        <mxCell id="1LS12-EilgBURgq3hOVw-147" value="" style="group" vertex="1" connectable="0" parent="1LS12-EilgBURgq3hOVw-159">
          <mxGeometry y="24.11764705882353" width="1057.5026829268293" height="795.8823529411765" as="geometry" />
        </mxCell>
        <mxCell id="1LS12-EilgBURgq3hOVw-18" value="Petugas" style="swimlane;whiteSpace=wrap;html=1;" vertex="1" parent="1LS12-EilgBURgq3hOVw-147">
          <mxGeometry x="277.2713414634146" width="277.2713414634146" height="795.8823529411765" as="geometry" />
        </mxCell>
        <mxCell id="1LS12-EilgBURgq3hOVw-59" value="Suervey lokasi" style="rounded=1;whiteSpace=wrap;html=1;" vertex="1" parent="1LS12-EilgBURgq3hOVw-18">
          <mxGeometry x="35.46493902439024" y="108.52941176470588" width="206.34146341463412" height="72.35294117647058" as="geometry" />
        </mxCell>
        <mxCell id="1LS12-EilgBURgq3hOVw-124" value="memberikan masukan" style="rounded=1;whiteSpace=wrap;html=1;" vertex="1" parent="1LS12-EilgBURgq3hOVw-18">
          <mxGeometry x="35.46493902439024" y="283.38235294117646" width="206.34146341463412" height="72.35294117647058" as="geometry" />
        </mxCell>
        <mxCell id="1LS12-EilgBURgq3hOVw-19" value="Management" style="swimlane;whiteSpace=wrap;html=1;" vertex="1" parent="1LS12-EilgBURgq3hOVw-147">
          <mxGeometry x="554.5426829268292" width="502.96" height="795.8823529411765" as="geometry" />
        </mxCell>
        <mxCell id="1LS12-EilgBURgq3hOVw-24" value="Pengurus" style="swimlane;whiteSpace=wrap;html=1;fillColor=none;strokeColor=default;verticalAlign=middle;swimlaneLine=1;labelBorderColor=none;" vertex="1" parent="1LS12-EilgBURgq3hOVw-19">
          <mxGeometry x="251.48" y="22.74" width="251.48" height="772.26" as="geometry" />
        </mxCell>
        <mxCell id="1LS12-EilgBURgq3hOVw-133" value="" style="endArrow=classic;html=1;rounded=0;exitX=0.5;exitY=1;exitDx=0;exitDy=0;entryX=0.887;entryY=0.039;entryDx=0;entryDy=0;entryPerimeter=0;" edge="1" parent="1LS12-EilgBURgq3hOVw-24" target="1LS12-EilgBURgq3hOVw-120">
          <mxGeometry relative="1" as="geometry">
            <mxPoint x="60.61280487804878" y="155.55882352941177" as="sourcePoint" />
            <mxPoint x="61.90243902439024" y="379.85294117647055" as="targetPoint" />
          </mxGeometry>
        </mxCell>
        <mxCell id="1LS12-EilgBURgq3hOVw-134" value="6" style="edgeLabel;resizable=0;html=1;align=left;verticalAlign=bottom;" connectable="0" vertex="1" parent="1LS12-EilgBURgq3hOVw-133">
          <mxGeometry x="-1" relative="1" as="geometry">
            <mxPoint x="3" y="28" as="offset" />
          </mxGeometry>
        </mxCell>
        <mxCell id="1LS12-EilgBURgq3hOVw-137" value="Aprove/Reject" style="rounded=1;whiteSpace=wrap;html=1;" vertex="1" parent="1LS12-EilgBURgq3hOVw-24">
          <mxGeometry x="21.923780487804876" y="488.1470588235294" width="206.34146341463412" height="72.35294117647058" as="geometry" />
        </mxCell>
        <mxCell id="1LS12-EilgBURgq3hOVw-20" value="Pengawas" style="swimlane;whiteSpace=wrap;html=1;" vertex="1" parent="1LS12-EilgBURgq3hOVw-19">
          <mxGeometry y="22.74" width="251.48" height="772.26" as="geometry" />
        </mxCell>
        <mxCell id="1LS12-EilgBURgq3hOVw-121" value="memberikan masukan" style="rounded=1;whiteSpace=wrap;html=1;" vertex="1" parent="1LS12-EilgBURgq3hOVw-20">
          <mxGeometry x="19.34451219512195" y="78.38235294117646" width="206.34146341463412" height="72.35294117647058" as="geometry" />
        </mxCell>
        <mxCell id="1LS12-EilgBURgq3hOVw-90" value="" style="endArrow=classic;html=1;rounded=0;exitX=1;exitY=0.5;exitDx=0;exitDy=0;" edge="1" parent="1LS12-EilgBURgq3hOVw-147" source="1LS12-EilgBURgq3hOVw-116" target="1LS12-EilgBURgq3hOVw-59">
          <mxGeometry relative="1" as="geometry">
            <mxPoint x="243.74085365853657" y="265.29411764705884" as="sourcePoint" />
            <mxPoint x="502.9573170731707" y="229.11764705882354" as="targetPoint" />
          </mxGeometry>
        </mxCell>
        <mxCell id="1LS12-EilgBURgq3hOVw-92" value="1" style="edgeLabel;resizable=0;html=1;align=left;verticalAlign=bottom;" connectable="0" vertex="1" parent="1LS12-EilgBURgq3hOVw-90">
          <mxGeometry x="-1" relative="1" as="geometry">
            <mxPoint x="6" as="offset" />
          </mxGeometry>
        </mxCell>
        <mxCell id="1LS12-EilgBURgq3hOVw-94" value="" style="endArrow=classic;html=1;rounded=0;exitX=0.5;exitY=1;exitDx=0;exitDy=0;entryX=1;entryY=0.5;entryDx=0;entryDy=0;" edge="1" parent="1LS12-EilgBURgq3hOVw-147" source="1LS12-EilgBURgq3hOVw-59" target="1LS12-EilgBURgq3hOVw-117">
          <mxGeometry relative="1" as="geometry">
            <mxPoint x="315.9603658536585" y="235.1470588235294" as="sourcePoint" />
            <mxPoint x="243.74085365853657" y="391.9117647058823" as="targetPoint" />
            <Array as="points">
              <mxPoint x="416.55182926829264" y="267.70588235294116" />
            </Array>
          </mxGeometry>
        </mxCell>
        <mxCell id="1LS12-EilgBURgq3hOVw-95" value="2" style="edgeLabel;resizable=0;html=1;align=left;verticalAlign=bottom;" connectable="0" vertex="1" parent="1LS12-EilgBURgq3hOVw-94">
          <mxGeometry x="-1" relative="1" as="geometry">
            <mxPoint x="-12" y="25" as="offset" />
          </mxGeometry>
        </mxCell>
        <mxCell id="1LS12-EilgBURgq3hOVw-100" value="memberikan masukan" style="rounded=1;whiteSpace=wrap;html=1;" vertex="1" parent="1LS12-EilgBURgq3hOVw-147">
          <mxGeometry x="831.8140243902438" y="118.17647058823529" width="206.34146341463412" height="72.35294117647058" as="geometry" />
        </mxCell>
        <mxCell id="1LS12-EilgBURgq3hOVw-115" value="Admin" style="swimlane;whiteSpace=wrap;html=1;startSize=23;" vertex="1" parent="1LS12-EilgBURgq3hOVw-147">
          <mxGeometry width="277.2713414634146" height="795.8823529411765" as="geometry" />
        </mxCell>
        <mxCell id="1LS12-EilgBURgq3hOVw-116" value="Input data anggota" style="rounded=1;whiteSpace=wrap;html=1;" vertex="1" parent="1LS12-EilgBURgq3hOVw-115">
          <mxGeometry x="35.46493902439024" y="108.52941176470588" width="206.34146341463412" height="72.35294117647058" as="geometry" />
        </mxCell>
        <mxCell id="1LS12-EilgBURgq3hOVw-122" value="Informasi Hasil" style="rounded=1;whiteSpace=wrap;html=1;" vertex="1" parent="1LS12-EilgBURgq3hOVw-115">
          <mxGeometry x="25.792682926829265" y="511.2941176470588" width="206.34146341463412" height="72.35294117647058" as="geometry" />
        </mxCell>
        <mxCell id="1LS12-EilgBURgq3hOVw-123" value="Rekap data" style="rounded=1;whiteSpace=wrap;html=1;" vertex="1" parent="1LS12-EilgBURgq3hOVw-115">
          <mxGeometry x="25.792682926829265" y="635.5" width="206.34146341463412" height="72.35294117647058" as="geometry" />
        </mxCell>
        <mxCell id="1LS12-EilgBURgq3hOVw-25" value="" style="ellipse;html=1;shape=endState;fillColor=#000000;strokeColor=#ff0000;" vertex="1" parent="1LS12-EilgBURgq3hOVw-115">
          <mxGeometry x="109.61890243902438" y="742.8235294117646" width="38.6890243902439" height="36.17647058823529" as="geometry" />
        </mxCell>
        <mxCell id="1LS12-EilgBURgq3hOVw-125" value="" style="ellipse;html=1;shape=startState;fillColor=#000000;strokeColor=#ff0000;" vertex="1" parent="1LS12-EilgBURgq3hOVw-115">
          <mxGeometry x="127.67378048780486" y="36.17647058823529" width="38.6890243902439" height="36.17647058823529" as="geometry" />
        </mxCell>
        <mxCell id="1LS12-EilgBURgq3hOVw-126" value="" style="edgeStyle=orthogonalEdgeStyle;html=1;verticalAlign=bottom;endArrow=open;endSize=8;strokeColor=#ff0000;rounded=0;entryX=0.539;entryY=0.001;entryDx=0;entryDy=0;entryPerimeter=0;" edge="1" source="1LS12-EilgBURgq3hOVw-125" parent="1LS12-EilgBURgq3hOVw-115" target="1LS12-EilgBURgq3hOVw-116">
          <mxGeometry relative="1" as="geometry">
            <mxPoint x="148.30792682926827" y="114.55882352941177" as="targetPoint" />
          </mxGeometry>
        </mxCell>
        <mxCell id="1LS12-EilgBURgq3hOVw-142" value="" style="endArrow=classic;html=1;rounded=0;exitX=0.5;exitY=1;exitDx=0;exitDy=0;entryX=0.5;entryY=0;entryDx=0;entryDy=0;" edge="1" parent="1LS12-EilgBURgq3hOVw-115" source="1LS12-EilgBURgq3hOVw-122" target="1LS12-EilgBURgq3hOVw-123">
          <mxGeometry relative="1" as="geometry">
            <mxPoint x="122.51524390243901" y="578.8235294117646" as="sourcePoint" />
            <mxPoint x="122.51524390243901" y="684.9411764705882" as="targetPoint" />
          </mxGeometry>
        </mxCell>
        <mxCell id="1LS12-EilgBURgq3hOVw-143" value="10" style="edgeLabel;resizable=0;html=1;align=left;verticalAlign=bottom;" connectable="0" vertex="1" parent="1LS12-EilgBURgq3hOVw-142">
          <mxGeometry x="-1" relative="1" as="geometry">
            <mxPoint x="3" y="28" as="offset" />
          </mxGeometry>
        </mxCell>
        <mxCell id="1LS12-EilgBURgq3hOVw-146" value="" style="edgeStyle=orthogonalEdgeStyle;html=1;verticalAlign=bottom;endArrow=open;endSize=8;strokeColor=#ff0000;rounded=0;exitX=0.5;exitY=1;exitDx=0;exitDy=0;entryX=0.5;entryY=0;entryDx=0;entryDy=0;" edge="1" source="1LS12-EilgBURgq3hOVw-123" parent="1LS12-EilgBURgq3hOVw-115" target="1LS12-EilgBURgq3hOVw-25">
          <mxGeometry relative="1" as="geometry">
            <mxPoint x="96.72256097560975" y="741.6176470588235" as="targetPoint" />
            <mxPoint x="290.16768292682923" y="850.1470588235294" as="sourcePoint" />
          </mxGeometry>
        </mxCell>
        <mxCell id="1LS12-EilgBURgq3hOVw-117" value="Atur jadwal diskusi" style="rounded=1;whiteSpace=wrap;html=1;" vertex="1" parent="1LS12-EilgBURgq3hOVw-147">
          <mxGeometry x="35.46493902439024" y="231.52941176470588" width="206.34146341463412" height="72.35294117647058" as="geometry" />
        </mxCell>
        <mxCell id="1LS12-EilgBURgq3hOVw-120" value="Hasil survey" style="rounded=1;whiteSpace=wrap;html=1;" vertex="1" parent="1LS12-EilgBURgq3hOVw-147">
          <mxGeometry x="128.96341463414632" y="408.7941176470588" width="831.8140243902438" height="72.35294117647058" as="geometry" />
        </mxCell>
        <mxCell id="1LS12-EilgBURgq3hOVw-127" value="" style="endArrow=classic;html=1;rounded=0;exitX=0.75;exitY=1;exitDx=0;exitDy=0;" edge="1" parent="1LS12-EilgBURgq3hOVw-147" source="1LS12-EilgBURgq3hOVw-117">
          <mxGeometry relative="1" as="geometry">
            <mxPoint x="241.80640243902437" y="343.6764705882353" as="sourcePoint" />
            <mxPoint x="190.86585365853657" y="410" as="targetPoint" />
          </mxGeometry>
        </mxCell>
        <mxCell id="1LS12-EilgBURgq3hOVw-128" value="3" style="edgeLabel;resizable=0;html=1;align=left;verticalAlign=bottom;" connectable="0" vertex="1" parent="1LS12-EilgBURgq3hOVw-127">
          <mxGeometry x="-1" relative="1" as="geometry">
            <mxPoint x="3" y="28" as="offset" />
          </mxGeometry>
        </mxCell>
        <mxCell id="1LS12-EilgBURgq3hOVw-129" value="" style="endArrow=classic;html=1;rounded=0;exitX=0.5;exitY=1;exitDx=0;exitDy=0;entryX=0.357;entryY=0.003;entryDx=0;entryDy=0;entryPerimeter=0;" edge="1" parent="1LS12-EilgBURgq3hOVw-147" source="1LS12-EilgBURgq3hOVw-124">
          <mxGeometry relative="1" as="geometry">
            <mxPoint x="414.8753048780485" y="356.6035294117648" as="sourcePoint" />
            <mxPoint x="415.6039481707318" y="409.01117647058834" as="targetPoint" />
          </mxGeometry>
        </mxCell>
        <mxCell id="1LS12-EilgBURgq3hOVw-130" value="4" style="edgeLabel;resizable=0;html=1;align=left;verticalAlign=bottom;" connectable="0" vertex="1" parent="1LS12-EilgBURgq3hOVw-129">
          <mxGeometry x="-1" relative="1" as="geometry">
            <mxPoint x="3" y="28" as="offset" />
          </mxGeometry>
        </mxCell>
        <mxCell id="1LS12-EilgBURgq3hOVw-131" value="" style="endArrow=classic;html=1;rounded=0;exitX=0.5;exitY=1;exitDx=0;exitDy=0;entryX=0.66;entryY=0.028;entryDx=0;entryDy=0;entryPerimeter=0;" edge="1" parent="1LS12-EilgBURgq3hOVw-147" source="1LS12-EilgBURgq3hOVw-121" target="1LS12-EilgBURgq3hOVw-120">
          <mxGeometry relative="1" as="geometry">
            <mxPoint x="683.6350609756093" y="186.91176470588238" as="sourcePoint" />
            <mxPoint x="684.3637042682927" y="239.31941176470593" as="targetPoint" />
          </mxGeometry>
        </mxCell>
        <mxCell id="1LS12-EilgBURgq3hOVw-132" value="5" style="edgeLabel;resizable=0;html=1;align=left;verticalAlign=bottom;" connectable="0" vertex="1" parent="1LS12-EilgBURgq3hOVw-131">
          <mxGeometry x="-1" relative="1" as="geometry">
            <mxPoint x="3" y="28" as="offset" />
          </mxGeometry>
        </mxCell>
        <mxCell id="1LS12-EilgBURgq3hOVw-135" value="" style="endArrow=classic;html=1;rounded=0;exitX=0.946;exitY=-0.026;exitDx=0;exitDy=0;exitPerimeter=0;entryX=0.4;entryY=0.992;entryDx=0;entryDy=0;entryPerimeter=0;" edge="1" parent="1LS12-EilgBURgq3hOVw-147" source="1LS12-EilgBURgq3hOVw-120" target="1LS12-EilgBURgq3hOVw-100">
          <mxGeometry relative="1" as="geometry">
            <mxPoint x="915.6402439024389" y="403.9705882352941" as="sourcePoint" />
            <mxPoint x="915.6402439024389" y="192.94117647058823" as="targetPoint" />
          </mxGeometry>
        </mxCell>
        <mxCell id="1LS12-EilgBURgq3hOVw-136" value="7" style="edgeLabel;resizable=0;html=1;align=left;verticalAlign=bottom;" connectable="0" vertex="1" parent="1LS12-EilgBURgq3hOVw-135">
          <mxGeometry x="-1" relative="1" as="geometry">
            <mxPoint x="3" y="-15" as="offset" />
          </mxGeometry>
        </mxCell>
        <mxCell id="1LS12-EilgBURgq3hOVw-138" value="" style="endArrow=classic;html=1;rounded=0;exitX=0.75;exitY=1;exitDx=0;exitDy=0;entryX=0.77;entryY=0.031;entryDx=0;entryDy=0;entryPerimeter=0;" edge="1" parent="1LS12-EilgBURgq3hOVw-147" source="1LS12-EilgBURgq3hOVw-100" target="1LS12-EilgBURgq3hOVw-137">
          <mxGeometry relative="1" as="geometry">
            <mxPoint x="993.0182926829267" y="192.94117647058823" as="sourcePoint" />
            <mxPoint x="986.5701219512194" y="500.44117647058823" as="targetPoint" />
          </mxGeometry>
        </mxCell>
        <mxCell id="1LS12-EilgBURgq3hOVw-139" value="8" style="edgeLabel;resizable=0;html=1;align=left;verticalAlign=bottom;" connectable="0" vertex="1" parent="1LS12-EilgBURgq3hOVw-138">
          <mxGeometry x="-1" relative="1" as="geometry">
            <mxPoint x="3" y="28" as="offset" />
          </mxGeometry>
        </mxCell>
        <mxCell id="1LS12-EilgBURgq3hOVw-140" value="" style="endArrow=classic;html=1;rounded=0;exitX=0;exitY=0.5;exitDx=0;exitDy=0;entryX=1;entryY=0.5;entryDx=0;entryDy=0;" edge="1" parent="1LS12-EilgBURgq3hOVw-147" source="1LS12-EilgBURgq3hOVw-137" target="1LS12-EilgBURgq3hOVw-122">
          <mxGeometry relative="1" as="geometry">
            <mxPoint x="760.8841463414634" y="542.6470588235294" as="sourcePoint" />
            <mxPoint x="760.8841463414634" y="870.6470588235294" as="targetPoint" />
          </mxGeometry>
        </mxCell>
        <mxCell id="1LS12-EilgBURgq3hOVw-141" value="9" style="edgeLabel;resizable=0;html=1;align=left;verticalAlign=bottom;" connectable="0" vertex="1" parent="1LS12-EilgBURgq3hOVw-140">
          <mxGeometry x="-1" relative="1" as="geometry">
            <mxPoint x="-40" y="22" as="offset" />
          </mxGeometry>
        </mxCell>
        <mxCell id="1LS12-EilgBURgq3hOVw-155" value="Docflow penentuan kelayakan pinjaman" style="swimlane;startSize=20;horizontal=1;containerType=tree;" vertex="1" parent="1LS12-EilgBURgq3hOVw-159">
          <mxGeometry width="1057.5" height="820" as="geometry" />
        </mxCell>
      </root>
    </mxGraphModel>
  </diagram>
  <diagram name="Sytem Usulan" id="Orbv_njN62y2XLEKtr8I">
    <mxGraphModel dx="3233" dy="1631" grid="1" gridSize="5" guides="1" tooltips="1" connect="1" arrows="1" fold="1" page="1" pageScale="1" pageWidth="1100" pageHeight="850" math="0" shadow="0">
      <root>
        <mxCell id="eoRhj3O0z1ePfbJQVQLT-0" />
        <mxCell id="eoRhj3O0z1ePfbJQVQLT-1" parent="eoRhj3O0z1ePfbJQVQLT-0" />
        <mxCell id="eoRhj3O0z1ePfbJQVQLT-43" value="System Usulan" style="swimlane;startSize=20;horizontal=1;containerType=tree;movable=1;resizable=1;rotatable=1;deletable=1;editable=1;locked=0;connectable=1;container=0;" vertex="1" parent="eoRhj3O0z1ePfbJQVQLT-1">
          <mxGeometry x="15" y="35" width="1060" height="725" as="geometry" />
        </mxCell>
        <mxCell id="eoRhj3O0z1ePfbJQVQLT-4" value="Petugas" style="swimlane;whiteSpace=wrap;html=1;container=0;movable=1;resizable=1;rotatable=1;deletable=1;editable=1;locked=0;connectable=1;" vertex="1" parent="eoRhj3O0z1ePfbJQVQLT-1">
          <mxGeometry x="295" y="59.12" width="274.54" height="555.88" as="geometry" />
        </mxCell>
        <mxCell id="eoRhj3O0z1ePfbJQVQLT-7" value="Management" style="swimlane;whiteSpace=wrap;html=1;container=0;movable=1;resizable=1;rotatable=1;deletable=1;editable=1;locked=0;connectable=1;" vertex="1" parent="eoRhj3O0z1ePfbJQVQLT-1">
          <mxGeometry x="570.54" y="59.12" width="499.46" height="555.88" as="geometry" />
        </mxCell>
        <mxCell id="eoRhj3O0z1ePfbJQVQLT-12" value="Pengurus" style="swimlane;whiteSpace=wrap;html=1;container=0;movable=1;resizable=1;rotatable=1;deletable=1;editable=1;locked=0;connectable=1;" vertex="1" parent="eoRhj3O0z1ePfbJQVQLT-7">
          <mxGeometry x="-0.01999999999998181" y="22.740000000000002" width="251.48" height="533.14" as="geometry" />
        </mxCell>
        <mxCell id="eoRhj3O0z1ePfbJQVQLT-18" value="memberikan masukan" style="rounded=1;whiteSpace=wrap;html=1;container=0;movable=1;resizable=1;rotatable=1;deletable=1;editable=1;locked=0;connectable=1;" vertex="1" parent="eoRhj3O0z1ePfbJQVQLT-1">
          <mxGeometry x="850.8140243902438" y="167.29411764705884" width="206.34146341463412" height="72.35294117647058" as="geometry" />
        </mxCell>
        <mxCell id="eoRhj3O0z1ePfbJQVQLT-19" value="Admin" style="swimlane;whiteSpace=wrap;html=1;startSize=23;container=0;movable=1;resizable=1;rotatable=1;deletable=1;editable=1;locked=0;connectable=1;" vertex="1" parent="eoRhj3O0z1ePfbJQVQLT-1">
          <mxGeometry x="19" y="59.120000000000005" width="277.27" height="555.88" as="geometry" />
        </mxCell>
        <mxCell id="eoRhj3O0z1ePfbJQVQLT-35" value="" style="endArrow=classic;html=1;rounded=0;exitX=1;exitY=0.5;exitDx=0;exitDy=0;entryX=0;entryY=0.5;entryDx=0;entryDy=0;movable=1;resizable=1;rotatable=1;deletable=1;editable=1;locked=0;connectable=1;" edge="1" parent="eoRhj3O0z1ePfbJQVQLT-1" source="eoRhj3O0z1ePfbJQVQLT-13" target="eoRhj3O0z1ePfbJQVQLT-18">
          <mxGeometry relative="1" as="geometry">
            <mxPoint x="702.6350609756093" y="246.0294117647059" as="sourcePoint" />
            <mxPoint x="696.9606707317075" y="469.9376470588236" as="targetPoint" />
          </mxGeometry>
        </mxCell>
        <mxCell id="eoRhj3O0z1ePfbJQVQLT-36" value="3" style="edgeLabel;resizable=1;html=1;align=left;verticalAlign=bottom;container=0;movable=1;rotatable=1;deletable=1;editable=1;locked=0;connectable=1;" connectable="0" vertex="1" parent="eoRhj3O0z1ePfbJQVQLT-35">
          <mxGeometry x="-1" relative="1" as="geometry">
            <mxPoint x="3" y="1" as="offset" />
          </mxGeometry>
        </mxCell>
        <mxCell id="eoRhj3O0z1ePfbJQVQLT-39" value="" style="endArrow=classic;html=1;rounded=0;exitX=0.5;exitY=1;exitDx=0;exitDy=0;entryX=1;entryY=0.5;entryDx=0;entryDy=0;movable=1;resizable=1;rotatable=1;deletable=1;editable=1;locked=0;connectable=1;" edge="1" parent="eoRhj3O0z1ePfbJQVQLT-1" source="eoRhj3O0z1ePfbJQVQLT-18" target="6747T2es0vKsVYHWR4jP-0">
          <mxGeometry relative="1" as="geometry">
            <mxPoint x="1107.6901219512192" y="229.9970588235294" as="sourcePoint" />
            <mxPoint x="1103.9993902439023" y="342.59764705882355" as="targetPoint" />
            <Array as="points">
              <mxPoint x="954" y="330" />
            </Array>
          </mxGeometry>
        </mxCell>
        <mxCell id="eoRhj3O0z1ePfbJQVQLT-40" value="4" style="edgeLabel;resizable=1;html=1;align=left;verticalAlign=bottom;container=0;movable=1;rotatable=1;deletable=1;editable=1;locked=0;connectable=1;" connectable="0" vertex="1" parent="eoRhj3O0z1ePfbJQVQLT-39">
          <mxGeometry x="-1" relative="1" as="geometry">
            <mxPoint x="3" y="28" as="offset" />
          </mxGeometry>
        </mxCell>
        <mxCell id="eoRhj3O0z1ePfbJQVQLT-5" value="Suervey lokasi" style="rounded=1;whiteSpace=wrap;html=1;container=0;movable=1;resizable=1;rotatable=1;deletable=1;editable=1;locked=0;connectable=1;" vertex="1" parent="eoRhj3O0z1ePfbJQVQLT-1">
          <mxGeometry x="331.73628048780483" y="167.64705882352942" width="206.34146341463412" height="72.35294117647058" as="geometry" />
        </mxCell>
        <mxCell id="eoRhj3O0z1ePfbJQVQLT-8" value="Pengawas" style="swimlane;whiteSpace=wrap;html=1;fillColor=none;strokeColor=default;verticalAlign=middle;swimlaneLine=1;labelBorderColor=none;container=0;movable=1;resizable=1;rotatable=1;deletable=1;editable=1;locked=0;connectable=1;" vertex="1" parent="eoRhj3O0z1ePfbJQVQLT-1">
          <mxGeometry x="822" y="81.86" width="248" height="533.14" as="geometry" />
        </mxCell>
        <mxCell id="eoRhj3O0z1ePfbJQVQLT-20" value="Input data anggota" style="rounded=1;whiteSpace=wrap;html=1;container=0;movable=1;resizable=1;rotatable=1;deletable=1;editable=1;locked=0;connectable=1;" vertex="1" parent="eoRhj3O0z1ePfbJQVQLT-1">
          <mxGeometry x="54.46493902439025" y="167.64705882352942" width="206.34146341463412" height="72.35294117647058" as="geometry" />
        </mxCell>
        <mxCell id="eoRhj3O0z1ePfbJQVQLT-24" value="" style="ellipse;html=1;shape=startState;fillColor=#000000;strokeColor=#ff0000;container=0;movable=1;resizable=1;rotatable=1;deletable=1;editable=1;locked=0;connectable=1;" vertex="1" parent="eoRhj3O0z1ePfbJQVQLT-1">
          <mxGeometry x="146.67378048780486" y="95.29411764705883" width="38.6890243902439" height="36.17647058823529" as="geometry" />
        </mxCell>
        <mxCell id="eoRhj3O0z1ePfbJQVQLT-25" value="" style="edgeStyle=orthogonalEdgeStyle;html=1;verticalAlign=bottom;endArrow=open;endSize=8;strokeColor=#ff0000;rounded=0;entryX=0.539;entryY=0.001;entryDx=0;entryDy=0;entryPerimeter=0;movable=1;resizable=1;rotatable=1;deletable=1;editable=1;locked=0;connectable=1;" edge="1" parent="eoRhj3O0z1ePfbJQVQLT-1" source="eoRhj3O0z1ePfbJQVQLT-24" target="eoRhj3O0z1ePfbJQVQLT-20">
          <mxGeometry relative="1" as="geometry">
            <mxPoint x="167.30792682926827" y="173.6764705882353" as="targetPoint" />
          </mxGeometry>
        </mxCell>
        <mxCell id="eoRhj3O0z1ePfbJQVQLT-16" value="" style="endArrow=classic;html=1;rounded=0;exitX=1;exitY=0.5;exitDx=0;exitDy=0;entryX=0;entryY=0.5;entryDx=0;entryDy=0;movable=1;resizable=1;rotatable=1;deletable=1;editable=1;locked=0;connectable=1;" edge="1" parent="eoRhj3O0z1ePfbJQVQLT-1" source="eoRhj3O0z1ePfbJQVQLT-5" target="eoRhj3O0z1ePfbJQVQLT-13">
          <mxGeometry relative="1" as="geometry">
            <mxPoint x="648.9977439024389" y="203.5835294117646" as="sourcePoint" />
            <mxPoint x="769" y="203" as="targetPoint" />
            <Array as="points" />
          </mxGeometry>
        </mxCell>
        <mxCell id="eoRhj3O0z1ePfbJQVQLT-17" value="2" style="edgeLabel;resizable=1;html=1;align=left;verticalAlign=bottom;container=0;movable=1;rotatable=1;deletable=1;editable=1;locked=0;connectable=1;" connectable="0" vertex="1" parent="eoRhj3O0z1ePfbJQVQLT-16">
          <mxGeometry x="-1" relative="1" as="geometry">
            <mxPoint x="6" as="offset" />
          </mxGeometry>
        </mxCell>
        <mxCell id="6747T2es0vKsVYHWR4jP-3" value="" style="endArrow=classic;html=1;rounded=0;exitX=0.997;exitY=0.201;exitDx=0;exitDy=0;entryX=0.25;entryY=1;entryDx=0;entryDy=0;exitPerimeter=0;movable=1;resizable=1;rotatable=1;deletable=1;editable=1;locked=0;connectable=1;" edge="1" parent="eoRhj3O0z1ePfbJQVQLT-1" source="6747T2es0vKsVYHWR4jP-0" target="eoRhj3O0z1ePfbJQVQLT-18">
          <mxGeometry relative="1" as="geometry">
            <mxPoint x="805" y="209" as="sourcePoint" />
            <mxPoint x="856" y="208" as="targetPoint" />
            <Array as="points">
              <mxPoint x="902" y="310" />
            </Array>
          </mxGeometry>
        </mxCell>
        <mxCell id="6747T2es0vKsVYHWR4jP-4" value="5" style="edgeLabel;resizable=1;html=1;align=left;verticalAlign=bottom;container=0;movable=1;rotatable=1;deletable=1;editable=1;locked=0;connectable=1;" connectable="0" vertex="1" parent="6747T2es0vKsVYHWR4jP-3">
          <mxGeometry x="-1" relative="1" as="geometry">
            <mxPoint x="3" y="1" as="offset" />
          </mxGeometry>
        </mxCell>
        <mxCell id="6747T2es0vKsVYHWR4jP-7" value="" style="endArrow=classic;html=1;rounded=0;exitX=0.25;exitY=1;exitDx=0;exitDy=0;entryX=1;entryY=0.5;entryDx=0;entryDy=0;movable=1;resizable=1;rotatable=1;deletable=1;editable=1;locked=0;connectable=1;" edge="1" parent="eoRhj3O0z1ePfbJQVQLT-1" source="eoRhj3O0z1ePfbJQVQLT-13" target="eoRhj3O0z1ePfbJQVQLT-22">
          <mxGeometry relative="1" as="geometry">
            <mxPoint x="672" y="295" as="sourcePoint" />
            <mxPoint x="524" y="386" as="targetPoint" />
            <Array as="points">
              <mxPoint x="644" y="391" />
            </Array>
          </mxGeometry>
        </mxCell>
        <mxCell id="6747T2es0vKsVYHWR4jP-8" value="6" style="edgeLabel;resizable=1;html=1;align=left;verticalAlign=bottom;container=0;movable=1;rotatable=1;deletable=1;editable=1;locked=0;connectable=1;" connectable="0" vertex="1" parent="6747T2es0vKsVYHWR4jP-7">
          <mxGeometry x="-1" relative="1" as="geometry">
            <mxPoint x="-16" y="30" as="offset" />
          </mxGeometry>
        </mxCell>
        <mxCell id="6747T2es0vKsVYHWR4jP-9" value="Creditur" style="swimlane;childLayout=stackLayout;resizeParent=1;resizeParentMax=0;horizontal=0;startSize=20;horizontalStack=0;html=1;movable=1;resizable=1;rotatable=1;deletable=1;editable=1;locked=0;connectable=1;container=0;" vertex="1" parent="eoRhj3O0z1ePfbJQVQLT-1">
          <mxGeometry x="19" y="616" width="1051" height="140" as="geometry" />
        </mxCell>
        <mxCell id="eoRhj3O0z1ePfbJQVQLT-14" value="" style="endArrow=classic;html=1;rounded=0;exitX=1;exitY=0.5;exitDx=0;exitDy=0;movable=1;resizable=1;rotatable=1;deletable=1;editable=1;locked=0;connectable=1;" edge="1" parent="eoRhj3O0z1ePfbJQVQLT-1" source="eoRhj3O0z1ePfbJQVQLT-20" target="eoRhj3O0z1ePfbJQVQLT-5">
          <mxGeometry relative="1" as="geometry">
            <mxPoint x="262.7408536585366" y="324.4117647058824" as="sourcePoint" />
            <mxPoint x="521.9573170731708" y="288.2352941176471" as="targetPoint" />
          </mxGeometry>
        </mxCell>
        <mxCell id="eoRhj3O0z1ePfbJQVQLT-15" value="1" style="edgeLabel;resizable=1;html=1;align=left;verticalAlign=bottom;container=0;movable=1;rotatable=1;deletable=1;editable=1;locked=0;connectable=1;" connectable="0" vertex="1" parent="eoRhj3O0z1ePfbJQVQLT-14">
          <mxGeometry x="-1" relative="1" as="geometry">
            <mxPoint x="6" as="offset" />
          </mxGeometry>
        </mxCell>
        <mxCell id="6747T2es0vKsVYHWR4jP-15" value="" style="edgeStyle=orthogonalEdgeStyle;rounded=0;orthogonalLoop=1;jettySize=auto;html=1;exitX=0.25;exitY=1;exitDx=0;exitDy=0;" edge="1" parent="eoRhj3O0z1ePfbJQVQLT-1" source="eoRhj3O0z1ePfbJQVQLT-13" target="6747T2es0vKsVYHWR4jP-14">
          <mxGeometry relative="1" as="geometry" />
        </mxCell>
        <mxCell id="6747T2es0vKsVYHWR4jP-14" value="Informasi Hasil" style="rounded=1;whiteSpace=wrap;html=1;container=0;movable=1;resizable=1;rotatable=1;deletable=1;editable=1;locked=0;connectable=1;" vertex="1" parent="eoRhj3O0z1ePfbJQVQLT-1">
          <mxGeometry x="550" y="640" width="190" height="72.35" as="geometry" />
        </mxCell>
        <mxCell id="eoRhj3O0z1ePfbJQVQLT-22" value="Rekap data" style="rounded=1;whiteSpace=wrap;html=1;container=0;movable=1;resizable=1;rotatable=1;deletable=1;editable=1;locked=0;connectable=1;" vertex="1" parent="eoRhj3O0z1ePfbJQVQLT-1">
          <mxGeometry x="44.79268292682926" y="355" width="206.34146341463412" height="72.35294117647058" as="geometry" />
        </mxCell>
        <mxCell id="eoRhj3O0z1ePfbJQVQLT-28" value="" style="edgeStyle=orthogonalEdgeStyle;html=1;verticalAlign=bottom;endArrow=open;endSize=8;strokeColor=#ff0000;rounded=0;entryX=0.5;entryY=0;entryDx=0;entryDy=0;exitX=0.5;exitY=1;exitDx=0;exitDy=0;movable=1;resizable=1;rotatable=1;deletable=1;editable=1;locked=0;connectable=1;" edge="1" parent="eoRhj3O0z1ePfbJQVQLT-1" source="eoRhj3O0z1ePfbJQVQLT-22" target="eoRhj3O0z1ePfbJQVQLT-23">
          <mxGeometry relative="1" as="geometry">
            <mxPoint x="149.09341463414626" y="562.6511764705882" as="targetPoint" />
            <mxPoint x="203.71341463414615" y="385.0029411764707" as="sourcePoint" />
          </mxGeometry>
        </mxCell>
        <mxCell id="eoRhj3O0z1ePfbJQVQLT-23" value="" style="ellipse;html=1;shape=endState;fillColor=#000000;strokeColor=#ff0000;container=0;movable=1;resizable=1;rotatable=1;deletable=1;editable=1;locked=0;connectable=1;" vertex="1" parent="eoRhj3O0z1ePfbJQVQLT-1">
          <mxGeometry x="128.6189024390244" y="520.0011764705882" width="38.6890243902439" height="36.17647058823529" as="geometry" />
        </mxCell>
        <mxCell id="eoRhj3O0z1ePfbJQVQLT-13" value="Aprove/Reject" style="rounded=1;whiteSpace=wrap;html=1;container=0;movable=1;resizable=1;rotatable=1;deletable=1;editable=1;locked=0;connectable=1;" vertex="1" parent="eoRhj3O0z1ePfbJQVQLT-1">
          <mxGeometry x="593.994512195122" y="167.65235294117645" width="206.34146341463412" height="72.35294117647058" as="geometry" />
        </mxCell>
        <mxCell id="6747T2es0vKsVYHWR4jP-0" value="Mauksan pengawas" style="rounded=1;whiteSpace=wrap;html=1;container=0;movable=1;resizable=1;rotatable=1;deletable=1;editable=1;locked=0;connectable=1;" vertex="1" parent="eoRhj3O0z1ePfbJQVQLT-1">
          <mxGeometry x="663.54" y="295" width="142.26" height="72.35" as="geometry" />
        </mxCell>
        <mxCell id="6747T2es0vKsVYHWR4jP-5" value="" style="endArrow=classic;html=1;rounded=0;exitX=0.5;exitY=0;exitDx=0;exitDy=0;entryX=0.687;entryY=1.018;entryDx=0;entryDy=0;entryPerimeter=0;movable=1;resizable=1;rotatable=1;deletable=1;editable=1;locked=0;connectable=1;" edge="1" parent="eoRhj3O0z1ePfbJQVQLT-1" source="6747T2es0vKsVYHWR4jP-0" target="eoRhj3O0z1ePfbJQVQLT-13">
          <mxGeometry relative="1" as="geometry">
            <mxPoint x="804.9973170731707" y="209.00235294117647" as="sourcePoint" />
            <mxPoint x="855.9973170731707" y="208.00235294117647" as="targetPoint" />
          </mxGeometry>
        </mxCell>
      </root>
    </mxGraphModel>
  </diagram>
</mxfile>
